<svg xmlns="http://www.w3.org/2000/svg" xmlns:xlink="http://www.w3.org/1999/xlink" height="512.0" preserveAspectRatio="xMidYMid meet" version="1.0" viewBox="0.0 0.0 512.0 512.0" width="512.0" zoomAndPan="magnify">
  <g id="change1_2">
    <path d="m256 0c-141.38 0-256 114.62-256 256s114.62 256 256 256 256-114.62 256-256-114.62-256-256-256zm0 40c119.29 0 216 96.706 216 216s-96.706 216-216 216-216-96.71-216-216 96.71-216 216-216z" fill="red" fill-rule="evenodd"/>
  </g>
  <g id="change1_1">
    <path d="m256 60c-13.61 0-26.891 1.3906-39.719 4.0312l-11.188 30.156-36.562 98.438 41.125 23.75c11.18-13.07 27.78-21.37 46.34-21.37 18.557 0 35.156 8.301 46.344 21.375l41.125-23.75-36.562-98.438-11.188-30.156c-12.83-2.639-26.11-4.03-39.72-4.03z" fill="red" fill-rule="evenodd"/>
  </g>
  <g id="change1_4">
    <path d="m384.49 202.58a180.67 181.72 0 1 1 -361.34 0 180.67 181.72 0 1 1 361.34 0z" fill="red" fill-rule="evenodd" transform="matrix(.22693 0 0 .22562 209.75 210.29)"/>
  </g>
  <g id="change1_5">
    <path d="m425.77 353.93c6.805-11.787 12.241-23.983 16.368-36.413l-20.522-24.767-66.968-80.883-41.131 23.74c5.7284 16.226 4.6178 34.752-4.6606 50.822-9.2783 16.071-24.767 26.295-41.683 29.447l6e-3 47.49 103.53 17.555 31.71 5.3895c8.701-9.7892 16.546-20.595 23.351-32.382z" fill="red" fill-rule="evenodd"/>
  </g>
  <g id="change1_3">
    <path d="m86.23 353.93c6.805 11.787 14.65 22.593 23.351 32.382l31.71-5.3895 103.53-17.555 6e-3 -47.49c-16.916-3.1521-32.405-13.377-41.683-29.447-9.2783-16.071-10.389-34.596-4.6606-50.822l-41.131-23.74-66.968 80.883-20.522 24.767c4.1272 12.43 9.5632 24.627 16.368 36.413z" fill="red" fill-rule="evenodd"/>
  </g>
</svg>
